<svg width="1471" height="951" viewBox="0 0 1471 951" fill="none" xmlns="http://www.w3.org/2000/svg">
<path opacity="0.8" d="M44.4282 0V951M87.6202 0V951M130.812 0V951M174.004 0V951M217.196 0V951M260.388 0V951M303.58 0V951M346.772 0V951M389.964 0V951M433.156 0V951M476.348 0V951M519.54 0V951M562.732 0V951M605.924 0V951M649.116 0V951M692.308 0V951M735.5 0V951M778.692 0V951M821.884 0V951M865.076 0V951M908.268 0V951M951.46 0V951M994.652 0V951M1037.84 0V951M1081.04 0V951M1124.23 0V951M1167.42 0V951M1210.61 0V951M1253.8 0V951M1297 0V951M1340.19 0V951M1383.38 0V951M1426.57 0V951M1471 44.3093L0 44.3092M1471 87.4281L0 87.4281M1471 130.547L0 130.547M1471 173.666L0 173.666M1471 216.786L0 216.786M1471 259.904L0 259.904M1471 303.024L0 303.024M1471 346.143L0 346.143M1471 389.262L0 389.262M1471 432.381L0 432.381M1471 475.5L0 475.5M1471 518.619L0 518.619M1471 561.738L0 561.738M1471 604.857L0 604.857M1471 647.976L0 647.976M1471 691.096L0 691.095M1471 734.214L0 734.214M1471 777.334L0 777.333M1471 820.453L0 820.453M1471 863.572L0 863.572M1471 906.691L0 906.691" stroke="url(#paint0_radial_72_567)"/>
<defs>
<radialGradient id="paint0_radial_72_567" cx="0" cy="0" r="1" gradientUnits="userSpaceOnUse" gradientTransform="translate(735.5 475.5) rotate(90) scale(475.5 735.5)">
<stop stop-color="white"/>
<stop offset="0.85" stop-color="white" stop-opacity="0"/>
</radialGradient>
</defs>
</svg>
